<svg xmlns:xlink="http://www.w3.org/1999/xlink" xmlns="http://www.w3.org/2000/svg" width="30" height="30" viewBox="0 0 30 30" fill="none">
<path fill-rule="evenodd" clip-rule="evenodd" d="M0 14.9414C0 6.62256 6.86162 0 15.0586 0C23.3174 0 30 6.6832 30 14.9414C30 23.1295 23.3865 30 15.0586 30C6.79184 30 0 23.1823 0 14.9414ZM1.74609 14.9414C1.74609 22.2755 7.72453 28.2539 15.0586 28.2539C22.328 28.2539 28.2539 22.2755 28.2539 14.9414C28.2539 7.67197 22.328 1.74609 15.0586 1.74609C7.72453 1.74609 1.74609 7.67197 1.74609 14.9414Z" fill="#3E54A3"/>
<path fill-rule="evenodd" clip-rule="evenodd" d="M12.4219 14.9414C12.4219 13.4875 13.6047 12.3047 15.0586 12.3047C16.5125 12.3047 17.6953 13.4875 17.6953 14.9414V22.0898C17.6953 23.5437 16.5125 24.7266 15.0586 24.7266C13.6047 24.7266 12.4219 23.5437 12.4219 22.0898V14.9414ZM15.0586 22.9688C15.5432 22.9688 15.9375 22.5745 15.9375 22.0898V14.9414C15.9375 14.4568 15.5432 14.0625 15.0586 14.0625C14.574 14.0625 14.1797 14.4568 14.1797 14.9414V22.0898C14.1797 22.5745 14.574 22.9688 15.0586 22.9688Z" fill="#3E54A3"/>
<path fill-rule="evenodd" clip-rule="evenodd" d="M12.4219 7.91016C12.4219 6.45627 13.6047 5.27344 15.0586 5.27344C16.5125 5.27344 17.6953 6.45627 17.6953 7.91016C17.6953 9.36404 16.5125 10.5469 15.0586 10.5469C13.6047 10.5469 12.4219 9.36404 12.4219 7.91016ZM14.1797 7.91016C14.1797 8.39479 14.574 8.78906 15.0586 8.78906C15.5432 8.78906 15.9375 8.39479 15.9375 7.91016C15.9375 7.42553 15.5432 7.03125 15.0586 7.03125C14.574 7.03125 14.1797 7.42553 14.1797 7.91016Z" fill="#3E54A3"/>
</svg>