<svg width="81" height="25" xmlns="http://www.w3.org/2000/svg"><g fill="none" fill-rule="evenodd"><g fill-rule="nonzero"><path d="M26.718 12.882a.85.85 0 0 1-.344-.072L19.16 9.588a.84.84 0 0 1 0-1.532l7.214-3.21a.844.844 0 0 1 1.11.423.84.84 0 0 1-.426 1.107l-5.496 2.447 5.497 2.456a.838.838 0 0 1-.341 1.603Z" fill="#67BECE"/><path d="M16.886 24.572c-7.931 0-14.865-5.34-16.859-12.987a.84.84 0 0 1 1.626-.422c1.809 6.913 8.07 11.735 15.233 11.733a.84.84 0 1 1 0 1.676Z" fill="#3F54A3"/><path d="M13.99 17.611a.84.84 0 0 1-.84-.838V.838a.84.84 0 0 1 1.68 0v15.935a.84.84 0 0 1-.84.838Z" fill="#67BECE"/></g><g transform="translate(40 1)"><rect fill="#3E54A3" width="41" height="22" rx="3"/><path d="M9.713 16c.143 0 .221-.078.221-.221v-3.237c0-.052.04-.078.078-.078h1.833c1.768 0 2.951-1.105 2.951-2.756 0-1.69-1.144-2.821-2.873-2.821h-3.6c-.144 0-.222.078-.222.221v8.671c0 .143.078.221.221.221h1.391Zm1.937-5.005h-1.638c-.052 0-.078-.026-.078-.078V8.551c0-.052.026-.078.078-.078h1.638c.793 0 1.326.507 1.326 1.274 0 .741-.533 1.248-1.326 1.248ZM18.352 16c.143 0 .22-.078.22-.221v-3.471c0-.052.027-.078.079-.078h1.183c.039 0 .078.026.09.065l1.6 3.536a.284.284 0 0 0 .26.169h1.469c.169 0 .234-.117.156-.26l-1.716-3.588c-.026-.039-.013-.091.039-.104 1.027-.351 1.664-1.235 1.664-2.418 0-1.638-1.105-2.743-2.782-2.743H16.96c-.143 0-.221.078-.221.221v8.671c0 .143.078.221.22.221h1.392Zm1.989-5.187h-1.69c-.052 0-.078-.039-.078-.078V8.551c0-.052.026-.078.078-.078h1.69c.728 0 1.235.481 1.235 1.183 0 .689-.507 1.157-1.235 1.157Zm8.43 5.33c2.067 0 3.432-1.326 3.432-3.302v-2.782c0-1.95-1.365-3.263-3.432-3.263-2.054 0-3.419 1.313-3.419 3.263v2.782c0 1.976 1.365 3.302 3.42 3.302Zm0-1.573c-.949 0-1.586-.663-1.586-1.664v-2.86c0-1.014.637-1.677 1.586-1.677.962 0 1.6.663 1.6 1.677v2.86c0 1.001-.638 1.664-1.6 1.664Z" fill="#FFF" fill-rule="nonzero"/></g></g></svg>