<svg width="125" height="20" xmlns="http://www.w3.org/2000/svg"><path d="M21.586 5.664H12.73a1.933 1.933 0 0 0-1.918 1.938V8.1c0 1.07.867 1.919 1.937 1.919h8.856a1.917 1.917 0 0 0 1.919-1.92v-.497c0-1.07-.867-1.938-1.92-1.938h-.018Zm-4.778 5.166H12.49a1.66 1.66 0 0 0-1.68 1.66v.425a1.67 1.67 0 0 0 1.661 1.68h4.336c.922 0 1.66-.739 1.66-1.661v-.443c0-.923-.738-1.66-1.66-1.66Zm-.258 4.558H7.694c-1.07 0-1.92.867-1.92 1.937v.48c0 1.07.85 1.937 1.92 1.937h8.856c1.07 0 1.937-.867 1.937-1.938v-.46c0-1.07-.867-1.938-1.937-1.938v-.018Zm-14.06 0h-.553c-1.07 0-1.937.867-1.937 1.955v.48c0 1.07.867 1.937 1.937 1.937h.554c1.07 0 1.919-.867 1.919-1.937v-.48c0-1.07-.85-1.937-1.92-1.937v-.018Zm25.554.738C28.505 18.856 31.18 20 34.28 20c3.505 0 6.033-1.531 6.033-4.483 0-1.956-1.162-3.45-3.671-3.986l-3.137-.627c-.83-.184-.996-.553-.996-.922 0-.48.369-1.052 1.513-1.052 1.291 0 2.085.738 2.214 1.568l3.874-.756c-.535-2.306-2.73-3.838-6.033-3.838-3.358 0-5.72 1.771-5.72 4.502 0 2.085 1.403 3.413 3.875 3.856l2.694.535c.978.185 1.31.517 1.31.978 0 .572-.59 1.052-1.716 1.052s-2.159-.425-2.343-1.55l-4.133.849Zm19.741.166c-1.9 0-3.173-1.384-3.173-3.321 0-1.938 1.273-3.34 3.173-3.34 1.347 0 2.436.738 2.805 2.343l3.966-.94c-.738-3.137-3.542-5.111-6.77-5.111-3.967 0-7.251 2.86-7.251 7.03 0 4.206 3.284 7.047 7.25 7.047 3.303 0 6.089-2.03 6.771-5.184l-3.892-.85c-.443 1.606-1.532 2.326-2.879 2.326Zm16.18-10.148a5.128 5.128 0 0 0-4.575 2.712V6.33h-4.243v13.284h4.243v-4.189c0-3.431 1.605-4.981 4.576-4.981h.756l.185-4.225a3.788 3.788 0 0 0-.941-.092v.018ZM67.952 0A2.398 2.398 0 0 0 65.516 2.4c0 1.365 1.014 2.361 2.435 2.361 1.44 0 2.454-.996 2.454-2.361C70.405 1.107 69.39 0 67.951 0Zm2.122 19.594V6.31h-4.244v13.284h4.244ZM88.209 5.941a5.719 5.719 0 0 0-4.705 2.214 4.925 4.925 0 0 0-4.335-2.214 4.982 4.982 0 0 0-3.912 1.605V6.33h-4.243v13.284h4.243V13.1c0-2.214.997-3.358 2.528-3.358 1.273 0 2.25.94 2.25 2.454v7.398h4.244V13.1c0-2.214 1.015-3.358 2.583-3.358 1.236 0 2.214.94 2.214 2.454v7.398h4.207v-8.302c0-3.23-2.251-5.35-5.074-5.35Zm14.022 0c-1.697 0-3.081.517-4.114 1.44V.553h-4.244v19.04h4.244v-1.052c1.033.923 2.398 1.458 4.133 1.458 3.505 0 6.475-2.841 6.475-7.048 0-4.17-2.952-7.01-6.475-7.01h-.019Zm-.849 10.461a3.321 3.321 0 0 1-3.265-3.45 3.32 3.32 0 0 1 3.265-3.432c1.845 0 3.192 1.403 3.192 3.432 0 2.067-1.347 3.45-3.192 3.45ZM124.168 6.33h-4.243V7.38c-1.015-.922-2.399-1.457-4.115-1.457-3.505 0-6.476 2.86-6.476 7.03 0 4.206 2.952 7.047 6.476 7.047 1.716 0 3.1-.535 4.133-1.476v1.07h4.225V6.31v.019Zm-7.49 10.073c-1.846 0-3.192-1.383-3.192-3.45 0-2.03 1.346-3.432 3.191-3.432a3.32 3.32 0 0 1 3.266 3.432 3.319 3.319 0 0 1-3.266 3.45Z" fill="#2B283A"/></svg>