<svg xmlns:xlink="http://www.w3.org/1999/xlink" xmlns="http://www.w3.org/2000/svg" width="109" height="115"><path fill="none" stroke="#E3EBF1" stroke-linecap="round" stroke-width="6" d="M105.786 111.708c-7.54 1.544-14.203-4.752-15.176-11.982-1.565-11.697 2.013-23.061-5.784-33.456-2.33-3.11-8.464-8.478-12.828-8.478 4.364 0 10.496-5.365 12.828-8.474 7.797-10.395 4.219-21.756 5.784-33.455.973-7.232 7.636-13.528 15.176-11.983M69.979 111.708c-7.54 1.544-14.204-4.752-15.176-11.982-1.566-11.697 2.013-23.061-5.785-33.456-2.33-3.11-8.464-8.478-12.827-8.478 4.363 0 10.496-5.365 12.827-8.474 7.798-10.395 4.219-21.756 5.785-33.455.972-7.232 7.635-13.528 15.176-11.983M34.17 111.708c-7.54 1.544-14.204-4.752-15.176-11.982C17.43 88.03 21.008 76.665 13.21 66.27c-2.33-3.11-8.462-8.478-12.826-8.478 4.364 0 10.495-5.365 12.826-8.474 7.798-10.395 4.219-21.756 5.785-33.455.972-7.232 7.636-13.528 15.176-11.983"/></svg>