<svg xmlns:xlink="http://www.w3.org/1999/xlink" xmlns="http://www.w3.org/2000/svg" width="51" height="49" viewBox="0 0 51 49" version="1.1"><title>Icon with arrow pointing down</title><g stroke="none" stroke-width="1" fill="none" fill-rule="evenodd"><g transform="translate(-94.000000, -222.000000)" fill="#3E54A4"><g id="Download" transform="translate(80.000000, 206.000000)" fill="#3E54A4"><g id="Group-5" fill="#3E54A4"><g id="Group" transform="translate(14.166667, 15.833333)" fill="#3E54A4"><polygon id="Fill-49" points="34.5361006 26.15518 26.9424269 33.4715867 26.9424269 0.333253963 23.8878518 0.333253963 23.8878518 33.4715867 16.2972328 26.15518 14.1666667 28.3260319 25.4151394 39.1666667 36.6666667 28.3260319" fill="#3E54A4"></polygon><path d="M47.8992304,40.3354371 L47.8992304,45.9957924 L2.93410293,45.9957924 L2.93410293,40.3354371 C2.93410293,39.6902758 2.27686388,39.1666667 1.46705147,39.1666667 C0.655772006,39.1666667 0,39.6902758 0,40.3354371 L0,47.1645629 C0,47.8108929 0.655772006,48.3333333 1.46705147,48.3333333 L49.3662819,48.3333333 C50.1760943,48.3333333 50.8333333,47.8108929 50.8333333,47.1645629 L50.8333333,40.3354371 C50.8333333,39.6902758 50.1760943,39.1666667 49.3662819,39.1666667 C48.5564695,39.1666667 47.8992304,39.6902758 47.8992304,40.3354371 Z" id="Fill-50" fill="#3E54A4"></path></g></g></g></g></g></svg>