<svg xmlns="http://www.w3.org/2000/svg" width="98" height="138"><g fill="none"><g fill="#E5ECEC"><path d="M66.86 137.5h29.573V72.8c-2.495-3.39-6.825-5.871-11.123-7.629-6.012-2.458-12.475-3.643-18.976-3.643H44.666c-6.501 0-12.964 1.185-18.976 3.643-4.298 1.757-8.628 4.239-11.123 7.628V137.5h29.998v-.001l22.295.001z"/><path d="M86.91 45.727V65.86c-.531-.24-1.067-.47-1.6-.688a48.73 48.73 0 00-11.604-3.124v-16.32c0-9.983-8.167-18.103-18.207-18.103-10.038 0-18.205 8.12-18.205 18.102v16.32a48.73 48.73 0 00-11.604 3.126c-.533.217-1.069.447-1.6.687V45.727C24.09 28.508 38.18 14.5 55.5 14.5c17.32 0 31.41 14.008 31.41 31.227z"/></g><g fill="#3E54A3"><path d="M86.462 59.323c-1.952-2.651-4.986-5.01-9.038-7.035v-18.56C77.424 15.13 62.206 0 43.499 0 24.794 0 9.577 15.13 9.577 33.727v18.56c-4.053 2.026-7.087 4.384-9.04 7.035A2.492 2.492 0 00.053 60.8V125.5c0 1.38 1.126 2.5 2.515 2.5h29.998c.74 0 1.44-.324 1.919-.885.477-.56.683-1.302.561-2.027A2.519 2.519 0 0032.492 123H5.082V61.664c2.98-3.505 7.62-5.577 11.886-7.053 5.037-1.743 10.37-2.582 15.698-2.582h21.668c5.329 0 10.662.839 15.698 2.582 4.266 1.477 8.905 3.548 11.887 7.053V123h-27.06a2.507 2.507 0 00-2.514 2.5c0 1.38 1.126 2.5 2.515 2.5h29.573a2.507 2.507 0 002.515-2.5V60.8a2.49 2.49 0 00-.486-1.477zM14.605 33.727C14.605 17.887 27.567 5 43.5 5c15.933 0 28.896 12.887 28.896 28.727V50.14a51.358 51.358 0 00-8.175-2.216V33.727c0-11.36-9.295-20.602-20.721-20.602-11.425 0-20.72 9.242-20.72 20.602v14.196a51.25 51.25 0 00-8.174 2.215v-16.41zm18.06 13.302a55.73 55.73 0 00-4.856.213V33.728c0-8.604 7.039-15.603 15.69-15.603 8.653 0 15.692 7 15.692 15.602v13.515a55.74 55.74 0 00-4.857-.213H32.666z"/><path d="M32.395 105.15a2.52 2.52 0 001.985.965h18.491a2.52 2.52 0 001.997-.98 2.489 2.489 0 00.43-2.173l-3.741-13.748a12.1 12.1 0 004.216-9.206c0-6.728-5.506-12.202-12.273-12.202-6.767 0-12.273 5.474-12.273 12.202 0 3.592 1.556 6.925 4.238 9.225l-3.522 13.766a2.49 2.49 0 00.452 2.15zM43.5 72.805c3.994 0 7.244 3.23 7.244 7.202a7.162 7.162 0 01-3.399 6.103 2.493 2.493 0 00-1.089 2.77l3.33 12.234H37.614l3.14-12.27a2.494 2.494 0 00-1.1-2.734 7.163 7.163 0 01-3.398-6.103c0-3.971 3.25-7.202 7.244-7.202zm2.55 51.739a2.533 2.533 0 00-2.508-1.536 2.53 2.53 0 00-2.236 1.825c-.597 2.132 1.807 3.934 3.713 2.809a2.51 2.51 0 001.03-3.098z"/></g></g></svg>