<?xml version="1.0" encoding="UTF-8" standalone="no"?>
<svg
   width="70.528412"
   height="46.646561"
   viewBox="0 0 70.528412 46.646561"
   version="1.1"
   id="svg28"
   sodipodi:docname="90ff1df1d33a6ddf56c1ffd614526d13.svg"
   xmlns:inkscape="http://www.inkscape.org/namespaces/inkscape"
   xmlns:sodipodi="http://sodipodi.sourceforge.net/DTD/sodipodi-0.dtd"
   xmlns="http://www.w3.org/2000/svg"
   xmlns:svg="http://www.w3.org/2000/svg">
  <defs
     id="defs32" />
  <sodipodi:namedview
     id="namedview30"
     pagecolor="#ffffff"
     bordercolor="#666666"
     borderopacity="1.0"
     inkscape:pageshadow="2"
     inkscape:pageopacity="0.0"
     inkscape:pagecheckerboard="0" />
  <title
     id="title2">Icon of laptop with outlines of code on the screen</title>
  <g
     stroke="none"
     stroke-width="1"
     fill="none"
     fill-rule="evenodd"
     id="g26"
     transform="translate(5,16)">
    <g
       transform="translate(-539,-223)"
       fill="none"
       id="g24">
      <g
         id="Code"
         transform="translate(534,207)"
         fill="none">
        <g
           id="Group-4"
           fill="none"><g
   id="Group-2"
   transform="translate(5,16.666667)"
   fill="none">
  <rect
     id="Rectangle"
     fill="#3e54a4"
     x="14.27614"
     y="14.27614"
     width="15.703753"
     height="1.427614"
     rx="0.71380699" />
  <rect
     id="Rectangle-Copy-3"
     fill="#67becf"
     x="14.27614"
     y="19.986595"
     width="8.5656843"
     height="1.427614"
     rx="0.71380699" />
  <rect
     id="Rectangle-Copy-10"
     fill="#3e54a4"
     x="14.27614"
     y="28.55228"
     width="9.9932976"
     height="1.427614"
     rx="0.71380699" />
  <rect
     id="Rectangle-Copy"
     fill="#3e54a4"
     x="19.986595"
     y="17.131369"
     width="5.7104559"
     height="1.427614"
     rx="0.71380699" />
  <rect
     id="Rectangle-Copy-4"
     fill="#ed2b49"
     x="24.269438"
     y="19.986595"
     width="4.2828422"
     height="1.427614"
     rx="0.71380699" />
  <rect
     id="Rectangle-Copy-2"
     fill="#ed2b49"
     x="14.27614"
     y="17.131369"
     width="4.2828422"
     height="1.427614"
     rx="0.71380699" />
  <rect
     id="Rectangle-Copy-5"
     fill="#67becf"
     x="27.124666"
     y="17.131369"
     width="8.5656843"
     height="1.427614"
     rx="0.71380699" />
  <rect
     id="Rectangle-Copy-9"
     fill="#67becf"
     x="14.27614"
     y="11.420912"
     width="9.9932976"
     height="1.427614"
     rx="0.71380699" />
  <rect
     id="Rectangle-Copy-8"
     fill="#3e54a4"
     x="14.27614"
     y="22.841824"
     width="22.841824"
     height="1.427614"
     rx="0.71380699" />
  <rect
     id="Rectangle-Copy-7"
     fill="#67becf"
     x="14.27614"
     y="25.697052"
     width="5.7104559"
     height="1.427614"
     rx="0.71380699" />
  <rect
     id="Rectangle-Copy-6"
     fill="#ed2b49"
     x="21.414209"
     y="25.697052"
     width="7.1380701"
     height="1.427614"
     rx="0.71380699" />
  <text
     id="" />
</g>
&quot; font-family=&quot;Heebo-Regular, Heebo&quot; font-size=&quot;14.2761398&quot; font-weight=&quot;normal&quot; line-spacing=&quot;14.2761398&quot; letter-spacing=&quot;-1.01972411&quot; fill=&quot;#3F54A3&quot;&gt;<tspan
   x="39.97319"
   y="29.27614"
   fill="#3f54a3"
   id="tspan17">/</tspan>
</g>
        <path
           d="m 1.427614,39.973191 v 2.879498 c 0,1.303411 1.0607172,2.364129 2.3641287,2.364129 H 66.736671 c 1.303411,0 2.364128,-1.060718 2.364128,-2.364129 v -2.879498 h -26.49937 c -0.102788,1.493285 -1.350523,2.676777 -2.868077,2.676777 h -8.031756 c -1.518981,0 -2.765288,-1.183492 -2.868076,-2.676777 z m 65.309057,6.671241 H 3.7917427 C 1.7002882,46.644432 0,44.944143 0,42.852689 v -4.307112 h 30.253995 v 1.229176 c 0,0.798036 0.649565,1.447601 1.447601,1.447601 h 8.031756 c 0.796609,0 1.446173,-0.649565 1.446173,-1.447601 v -1.229176 h 29.348888 v 4.307112 c 0,2.091454 -1.701715,3.791743 -3.791742,3.791743 z"
           id="Fill-139"
           fill="#3e54a4" />
        <path
           d="M 5.7104559,38.425658 H 65.060652 V 3.0165483 c 0,-0.8765549 -0.71238,-1.5889343 -1.590362,-1.5889343 H 7.2993903 c -0.876555,0 -1.5889344,0.7123794 -1.5889344,1.5889343 z M 66.488266,39.853272 H 4.2828419 V 3.0165483 C 4.2828419,1.3533781 5.63622,0 7.2993903,0 H 63.47029 c 1.664598,0 3.017976,1.3533781 3.017976,3.0165483 z"
           id="Fill-140"
           fill="#3e54a4" />
        <path
           d="m 10.20744,5.7104559 c -0.118492,0 -0.2141421,0.09565 -0.2141421,0.2127145 V 35.541878 c 0,0.118492 0.09565,0.215569 0.2141421,0.215569 h 50.984378 c 0.117064,0 0.214142,-0.09708 0.214142,-0.215569 V 5.9231704 c 0,-0.1170643 -0.09708,-0.2127145 -0.214142,-0.2127145 z M 61.191818,37.185061 H 10.20744 c -0.9065349,0 -1.6417561,-0.736648 -1.6417561,-1.643183 V 5.9231704 c 0,-0.9036797 0.7352212,-1.6403285 1.6417561,-1.6403285 h 50.984378 c 0.906535,0 1.641756,0.7366488 1.641756,1.6403285 V 35.541878 c 0,0.906535 -0.735221,1.643183 -1.641756,1.643183 z"
           id="Fill-141"
           fill="#3e54a4" />
      </g>
    </g>
  </g>
</svg>
