<svg xmlns:xlink="http://www.w3.org/1999/xlink" xmlns="http://www.w3.org/2000/svg" width="48" height="48"><path fill="#3E54A4" d="M18.375 0c9.518 0 17.359 6.787 18.204 15.42C43.45 18.02 48 24.184 48 31.031c0 4.014-1.551 7.932-4.299 10.96l3.85 3.572A1.406 1.406 0 0146.593 48H29.625c-9.155 0-16.594-6.252-18.028-14.156H1.407a1.406 1.406 0 01-.957-2.437l3.846-3.569C1.516 24.8 0 20.992 0 16.968 0 7.839 8.07 0 18.375 0zm18.21 18.467c-.797 8.426-8.451 15.377-18.21 15.377h-3.908c1.45 6.473 7.804 11.343 15.158 11.343H43.01l-2.287-2.121A1.406 1.406 0 0140.726 41c2.835-2.611 4.461-6.245 4.461-9.969 0-5.335-3.388-10.188-8.603-12.564zM18.374 2.813c-8.581 0-15.562 6.35-15.562 14.156 0 3.718 1.584 7.225 4.46 9.875.604.556.605 1.508.004 2.065L4.99 31.031h13.385c8.53 0 15.469-6.308 15.469-14.062 0-7.806-6.94-14.157-15.469-14.157zm8.438 16.968a1.406 1.406 0 010 2.813H9.938a1.406 1.406 0 010-2.813zm0-5.625a1.406 1.406 0 010 2.813H9.938a1.406 1.406 0 010-2.813zm0-5.625a1.406 1.406 0 010 2.813H9.938a1.406 1.406 0 010-2.813z"></path></svg>