<svg xmlns:xlink="http://www.w3.org/1999/xlink" xmlns="http://www.w3.org/2000/svg" width="51" height="51" viewBox="0 0 51 51" version="1.1"><title>Icon for sharing with three connected nodes</title><g stroke="none" stroke-width="1" fill="none" fill-rule="evenodd"><g transform="translate(-1003.000000, -221.000000)" fill="#3E54A4"><g id="Share" transform="translate(988.000000, 207.000000)" fill="#3E54A4"><g id="Group-3" fill="#3E54A4"><path d="M56.25,62.5 C52.3451337,62.5 49.1666667,59.3215329 49.1666667,55.4166667 C49.1666667,51.5099185 52.3451337,48.3333333 56.25,48.3333333 C60.1567481,48.3333333 63.3333333,51.5099185 63.3333333,55.4166667 C63.3333333,59.3215329 60.1567481,62.5 56.25,62.5 Z M24.5842741,46.6666667 C20.6780449,46.6666667 17.5,43.4886218 17.5,39.5842741 C17.5,35.6780449 20.6780449,32.5 24.5842741,32.5 C28.4886218,32.5 31.6666667,35.6780449 31.6666667,39.5842741 C31.6666667,43.4886218 28.4886218,46.6666667 24.5842741,46.6666667 Z M56.25,16.6666667 C60.1567481,16.6666667 63.3333333,19.8447116 63.3333333,23.7509408 C63.3333333,27.6552884 60.1567481,30.8333333 56.25,30.8333333 C52.3451337,30.8333333 49.1666667,27.6552884 49.1666667,23.7509408 C49.1666667,19.8447116 52.3451337,16.6666667 56.25,16.6666667 Z M55.9487615,45.2308563 C52.5913832,45.2308563 49.6278872,46.9226748 47.8404115,49.4885371 L34.2252109,42.6687452 C34.549695,41.6915418 34.7672681,40.665572 34.7672681,39.5833333 C34.7672681,38.499219 34.549695,37.4732492 34.2252109,36.4979214 L47.8404115,29.6762539 C49.6278872,32.2439918 52.5913832,33.9339348 55.9487615,33.9339348 C61.3993432,33.9339348 65.8333333,29.4999447 65.8333333,24.0512385 C65.8333333,18.6006568 61.3993432,14.1666667 55.9487615,14.1666667 C50.4981797,14.1666667 46.0641896,18.6006568 46.0641896,24.0512385 C46.0641896,25.1334772 46.2836384,26.159447 46.6062468,27.1347748 L32.9910462,33.9564423 C31.2035705,31.3887044 28.2419502,29.6987615 24.8845719,29.6987615 C19.4339901,29.6987615 15,34.1327516 15,39.5833333 C15,45.0320395 19.4339901,49.4679052 24.8845719,49.4679052 C28.2419502,49.4679052 31.2035705,47.7760866 32.9910462,45.2102243 L46.6062468,52.0300162 C46.2836384,53.0072196 46.0641896,54.0313138 46.0641896,55.1154281 C46.0641896,60.5641343 50.4981797,65 55.9487615,65 C61.3993432,65 65.8333333,60.5641343 65.8333333,55.1154281 C65.8333333,49.6648464 61.3993432,45.2308563 55.9487615,45.2308563 Z" id="Fill-20" fill="#3E54A4"></path></g></g></g></g></svg>